# xmcd CD database file
#
# Track frame offsets:
#	225
#	11748
#	23150
#	37616
#	47182
#	60926
#	75465
#	86448
#	98946
#	109961
#	123672
#	136137
#
# Disc length: 1996 seconds
#
# Revision: 0
# Processed by: cddbd v1.5.2PL0 Copyright (c) Steve Scherf et al.
# Submitted via: CDex 1.51
#
DISCID=8d07c90c
DTITLE=Tito Rodriguez - West Side Beat
DYEAR=1900
DGENRE=Salsa
TTITLE0=West Side Beat
TTITLE1=Vuela La Paloma
TTITLE2=Ay Que Rico
TTITLE3=Maria
TTITLE4=Estas Vencida
TTITLE5=Escandalo
TTITLE6=Tonight
TTITLE7=Matrimonio Feliz
TTITLE8=Voulez Vou Cha Cha Cha
TTITLE9=Hablame Mi Amor
TTITLE10=Pata Y Mondongo
TTITLE11=Negras Cenizas
EXTD=
EXTT0=
EXTT1=
EXTT2=
EXTT3=
EXTT4=
EXTT5=
EXTT6=
EXTT7=
EXTT8=
EXTT9=
EXTT10=
EXTT11=
PLAYORDER=
